<svg fill="#000000" xmlns="http://www.w3.org/2000/svg"  viewBox="0 0 100 100" width="32px" height="32px"><path d="M69.575,16h-39c-7.168,0-13,5.832-13,13v39c0,7.168,5.832,13,13,13h39c7.168,0,13-5.832,13-13V29C82.575,21.832,76.743,16,69.575,16z M80.575,68c0,6.065-4.935,11-11,11h-39c-6.065,0-11-4.935-11-11V29c0-6.065,4.935-11,11-11h39c6.065,0,11,4.935,11,11V68z"/><path d="M77.075,46c-0.276,0-0.5,0.224-0.5,0.5v18.663c0,5.424-4.413,9.837-9.837,9.837H33.412c-5.424,0-9.837-4.413-9.837-9.837V31.837c0-5.424,4.413-9.837,9.837-9.837h33.663c0.276,0,0.5-0.224,0.5-0.5s-0.224-0.5-0.5-0.5H33.412c-5.976,0-10.837,4.861-10.837,10.837v33.326C22.575,71.139,27.436,76,33.412,76h33.326c5.976,0,10.837-4.861,10.837-10.837V46.5C77.575,46.224,77.351,46,77.075,46z"/><path d="M77.075 40c-.276 0-.5.224-.5.5v4c0 .276.224.5.5.5s.5-.224.5-.5v-4C77.575 40.224 77.351 40 77.075 40zM76.575 36.5v2c0 .276.224.5.5.5s.5-.224.5-.5v-2c0-.276-.224-.5-.5-.5S76.575 36.224 76.575 36.5zM52.517 39h4.558c.276 0 .5-.224.5-.5v-6c0-.276-.224-.5-.5-.5h-5.036c-2.443.002-4.335.66-5.621 1.952-1.23 1.236-1.851 2.961-1.843 5.128l.5.057h-.5V43h-2.5c-.276 0-.5.224-.5.5v5c0 .276.224.5.5.5h2.5v15.5c0 .276.224.5.5.5h7c.276 0 .5-.224.5-.5V49h3.612c.245 0 .454-.178.493-.42.004-.024.392-2.439.577-5.044.01-.139-.039-.275-.133-.376C57.03 43.058 56.897 43 56.758 43h-5.184v-3.2C51.575 39.549 52.047 39 52.517 39zM51.075 44h5.144c-.141 1.718-.354 3.279-.461 4h-3.683c-.276 0-.5.224-.5.5V64h-6V48.5c0-.276-.224-.5-.5-.5h-2.5v-4h2.5c.276 0 .5-.224.5-.5v-4.363c0 0 0-.06 0-.06-.007-1.892.515-3.378 1.551-4.419 1.093-1.098 2.746-1.655 4.914-1.658h4.535v5h-4.058c-.944 0-1.942.925-1.942 1.8v3.7C50.575 43.776 50.798 44 51.075 44z"/></svg>