<svg fill="#000000" xmlns="http://www.w3.org/2000/svg"  viewBox="0 0 80 80" width="32px" height="32px"><path d="M40 27A1 1 0 1 0 40 29 1 1 0 1 0 40 27zM40 49A1 1 0 1 0 40 51 1 1 0 1 0 40 49zM51 38A1 1 0 1 0 51 40 1 1 0 1 0 51 38zM29 38A1 1 0 1 0 29 40 1 1 0 1 0 29 38z"/><path d="M47.778 30.222A1 1 0 1 0 47.778 32.222A1 1 0 1 0 47.778 30.222Z" transform="rotate(-45.001 47.778 31.223)"/><path d="M32.222 45.778A1 1 0 1 0 32.222 47.778A1 1 0 1 0 32.222 45.778Z" transform="rotate(-45.001 32.221 46.779)"/><path d="M47.778 45.778A1 1 0 1 0 47.778 47.778A1 1 0 1 0 47.778 45.778Z" transform="rotate(-45.001 47.778 46.779)"/><path d="M32.222 30.222A1 1 0 1 0 32.222 32.222A1 1 0 1 0 32.222 30.222Z" transform="rotate(-45.001 32.222 31.222)"/><path d="M35.79 27.837A1 1 0 1 0 35.79 29.837A1 1 0 1 0 35.79 27.837Z" transform="rotate(-22.5 35.789 28.836)"/><path d="M44.21 48.163A1 1 0 1 0 44.21 50.163A1 1 0 1 0 44.21 48.163Z" transform="rotate(-22.5 44.207 49.16)"/><path d="M50.163 33.79A1 1 0 1 0 50.163 35.79A1 1 0 1 0 50.163 33.79Z" transform="rotate(-22.5 50.16 34.79)"/><path d="M29.837 42.21A1 1 0 1 0 29.837 44.21A1 1 0 1 0 29.837 42.21Z" transform="rotate(-22.5 29.836 43.208)"/><path d="M44.21 27.837A1 1 0 1 0 44.21 29.837A1 1 0 1 0 44.21 27.837Z" transform="rotate(-67.5 44.209 28.837)"/><path d="M35.79 48.163A1 1 0 1 0 35.79 50.163A1 1 0 1 0 35.79 48.163Z" transform="rotate(-67.5 35.79 49.162)"/><path d="M50.163 42.21A1 1 0 1 0 50.163 44.21A1 1 0 1 0 50.163 42.21Z" transform="rotate(-67.5 50.162 43.208)"/><path d="M29.837 33.79A1 1 0 1 0 29.837 35.79A1 1 0 1 0 29.837 33.79Z" transform="rotate(-67.5 29.837 34.79)"/><path fill="none" stroke="#000000" stroke-miterlimit="10" stroke-width="2" d="M26.818,68h26.364C61.917,68,69,60.917,69,52.182V25.818C69,17.083,61.917,10,53.182,10H26.818C18.083,10,11,17.083,11,25.818v26.364C11,60.917,18.083,68,26.818,68z"/><path fill="none" stroke="#000000" stroke-miterlimit="10" stroke-width="2" d="M40 23A16 16 0 1 0 40 55A16 16 0 1 0 40 23Z"/><path d="M58 19.5A2.5 2.5 0 1 0 58 24.5A2.5 2.5 0 1 0 58 19.5Z"/></svg>