<svg fill="#000000" xmlns="http://www.w3.org/2000/svg"  viewBox="0 0 100 100" width="32px" height="32px"><path d="M69.614,17.654h-39c-7.168,0-13,5.832-13,13v39c0,7.168,5.832,13,13,13h39c7.168,0,13-5.832,13-13v-39C82.614,23.485,76.783,17.654,69.614,17.654z M80.614,69.654c0,6.065-4.935,11-11,11h-39c-6.065,0-11-4.935-11-11v-39c0-6.065,4.935-11,11-11h39c6.065,0,11,4.935,11,11V69.654z"/><path d="M77.114,47.654c-0.276,0-0.5,0.224-0.5,0.5v18.663c0,5.424-4.413,9.837-9.837,9.837H33.451c-5.424,0-9.837-4.413-9.837-9.837V33.49c0-5.424,4.413-9.837,9.837-9.837h33.663c0.276,0,0.5-0.224,0.5-0.5s-0.224-0.5-0.5-0.5H33.451c-5.976,0-10.837,4.861-10.837,10.837v33.326c0,5.976,4.861,10.837,10.837,10.837h33.326c5.976,0,10.837-4.861,10.837-10.837V48.154C77.614,47.877,77.391,47.654,77.114,47.654z"/><path d="M77.114 41.654c-.276 0-.5.224-.5.5v4c0 .276.224.5.5.5s.5-.224.5-.5v-4C77.614 41.877 77.391 41.654 77.114 41.654zM76.614 38.154v2c0 .276.224.5.5.5s.5-.224.5-.5v-2c0-.276-.224-.5-.5-.5S76.614 37.877 76.614 38.154zM66.412 41.201c.124-.185.11-.43-.033-.6-.143-.169-.382-.224-.585-.135-.557.248-1.129.453-1.715.617.681-.745 1.199-1.631 1.511-2.604.063-.198-.002-.414-.164-.544-.164-.13-.388-.145-.567-.039-1.172.693-2.431 1.19-3.747 1.478-1.316-1.292-3.108-2.027-4.959-2.027-3.894 0-7.062 3.168-7.062 7.063 0 .322.021.641.062.954-4.879-.417-9.419-2.811-12.535-6.631-.104-.127-.264-.191-.427-.183-.164.013-.31.105-.393.247-.625 1.075-.956 2.303-.956 3.551 0 1.744.638 3.396 1.761 4.671-.371-.12-.73-.276-1.071-.465-.152-.084-.337-.084-.489.001s-.248.244-.254.417c0 .006-.001.094-.001.1 0 2.593 1.423 4.922 3.586 6.15-.229-.017-.458-.047-.691-.092-.169-.031-.351.028-.468.16-.117.132-.155.316-.102.484.782 2.442 2.809 4.231 5.253 4.751-2.028 1.29-4.354 1.965-6.796 1.965-.508 0-1.015-.03-1.507-.088-.228-.029-.451.108-.53.328-.079.219.005.464.201.589 3.091 1.979 6.663 3.026 10.331 3.026 12.003 0 19.175-9.75 19.175-19.175 0-.202-.004-.403-.011-.604C64.473 43.634 65.542 42.502 66.412 41.201zM62.428 43.916c-.136.098-.214.258-.207.426.011.274.02.552.02.829 0 8.934-6.798 18.175-18.175 18.175-2.792 0-5.525-.64-8.01-1.863 2.919-.1 5.667-1.1 7.974-2.909.167-.13.233-.352.166-.552s-.253-.337-.465-.341c-2.323-.043-4.389-1.402-5.365-3.456.784.052 1.565-.028 2.32-.232.224-.061.376-.267.369-.499-.007-.232-.174-.428-.401-.474-2.561-.514-4.483-2.625-4.813-5.214.764.307 1.582.479 2.406.506.225.032.424-.134.492-.347.068-.212-.013-.444-.198-.568-1.688-1.13-2.697-3.017-2.697-5.048 0-.829.169-1.647.494-2.402 3.411 3.858 8.251 6.201 13.398 6.459.152.002.308-.059.409-.179s.139-.281.103-.434c-.104-.443-.156-.908-.156-1.382 0-3.343 2.719-6.063 6.062-6.063 1.671 0 3.286.698 4.429 1.915.118.125.294.182.46.148 1.043-.205 2.055-.53 3.022-.972-.51.85-1.227 1.57-2.095 2.09-.203.121-.292.367-.216.59.076.223.3.365.532.335.77-.091 1.527-.247 2.266-.465C63.918 42.708 63.208 43.353 62.428 43.916z"/></svg>